<?xml version="1.0" encoding="utf-8"?>
<svg width="24" height="24" xmlns="http://www.w3.org/2000/svg">
  <g>
    <title>background</title>
    <rect fill="none" id="canvas_background" height="402" width="582" y="-1" x="-1"/>
  </g>
  <path d="M 13.063 2.712 L 24.353 1.103 C 25.01 1.103 20.185 8.83 20.185 9.445 L 22.162 17.439 C 22.162 18.054 14.89 18.15 14.232 18.15 C 12.646 23.341 5.012 20.261 3.724 15.069 C 3.068 15.069 -1.919 4.535 5.857 3.704 C 5.857 3.089 12.408 2.712 13.063 2.712 Z" stroke-dasharray="2,2" id="svg_13" stroke-width="1.5" fill="none" style="stroke: rgb(227, 14, 14);"/>
  <g style="" transform="matrix(0.657318, 0, 0, 0.670367, 2.135933, -43.741829)"/>
  <path d="M 12.85 7.246 L 12.85 8.254 C 10.746 8.438 9.066 10.037 8.871 12.039 L 7.813 12.039 L 7.813 12.814 L 8.871 12.814 C 9.066 14.818 10.746 16.418 12.85 16.602 L 12.85 17.609 L 13.666 17.609 L 13.666 16.602 C 15.772 16.418 17.45 14.818 17.646 12.814 L 18.703 12.814 L 18.703 12.039 L 17.646 12.039 C 17.45 10.037 15.77 8.438 13.666 8.254 L 13.666 7.246 Z M 13.259 9.011 C 13.756 9.011 14.229 9.105 14.659 9.279 C 15.088 9.451 15.474 9.7 15.8 10.009 C 16.125 10.319 16.386 10.687 16.567 11.097 C 16.75 11.505 16.849 11.953 16.849 12.429 C 16.849 12.901 16.75 13.351 16.567 13.76 C 16.386 14.168 16.125 14.538 15.8 14.846 C 15.474 15.154 15.088 15.405 14.659 15.576 C 14.229 15.749 13.756 15.844 13.259 15.844 C 12.761 15.844 12.287 15.749 11.857 15.576 C 11.428 15.405 11.042 15.154 10.718 14.846 C 10.394 14.538 10.13 14.168 9.948 13.76 C 9.767 13.351 9.668 12.901 9.668 12.429 C 9.668 11.953 9.767 11.505 9.948 11.097 C 10.13 10.687 10.394 10.319 10.718 10.009 C 11.042 9.7 11.428 9.451 11.857 9.279 C 12.287 9.105 12.761 9.011 13.259 9.011 Z" fill-rule="evenodd" style=""/>
  <path d="M 10.535 12.429 L 15.981 12.429 M 13.259 9.836 L 13.259 15.019" fill="none" stroke="#000" stroke-width="1.5" style=""/>
  <ellipse cx="13.259" cy="12.429" fill="#fff" rx="0.817" ry="0.778" style=""/>
</svg>